<svg width="1018" height="250" viewBox="0 0 1018 250" fill="none" xmlns="http://www.w3.org/2000/svg">
<g clip-path="url(#clip0_2466_113)">
<path d="M126.593 0.512695C154.324 0.512695 176.385 9.7748 192.776 28.3247C209.167 46.8746 217.337 71.0176 217.337 100.754V244.252H168.189V110.452C168.189 88.9774 163.55 72.557 154.246 61.2424C144.943 49.9277 131.309 44.2319 113.32 44.2319C95.3312 44.2319 79.3525 51.0053 67.2911 64.5521C55.204 78.0989 49.1475 95.4686 49.1475 116.661V244.278H0V5.798H34.0708L43.8127 38.9209C52.936 26.8622 64.6623 17.4205 78.9916 10.6471C93.2952 3.89939 109.171 0.512695 126.593 0.512695Z" fill="black"/>
<path d="M511.243 125.462L511.192 125.411C511.192 102.499 506.192 81.5117 496.167 62.5257C486.141 43.514 471.812 28.3764 453.23 17.0105C434.648 5.67016 413.386 0 389.496 0C354.394 0 325.091 11.9304 301.613 35.7913C278.186 59.6264 266.434 89.3627 266.434 125C266.434 160.637 278.16 190.348 301.613 214.183C325.091 238.018 354.394 249.949 389.496 249.949C416.041 249.949 439.674 242.842 460.318 228.551C480.961 214.26 496.012 194.479 505.47 169.155H453.668C449.545 176.519 444.313 182.753 437.973 187.936C431.633 193.093 424.314 197.07 416.041 199.841C407.794 202.663 398.928 204.049 389.496 204.049C370.012 204.049 353.724 198.455 340.58 187.269C327.462 176.108 319.421 160.945 316.457 141.805H510.341C510.934 135.34 511.243 129.9 511.243 125.462ZM317.359 102.088C321.483 84.1287 329.988 70.0174 342.822 59.7034C355.657 49.3894 371.223 44.2323 389.521 44.2323C401.609 44.2323 412.613 46.5158 422.484 51.0571C432.38 55.624 440.731 62.2691 447.509 70.9411C454.287 79.6388 459.158 90.0041 462.096 102.088H317.359Z" fill="black"/>
<path d="M751.568 244.253H696.235L636.47 153.3L576.292 244.253H522.273L607.27 121.075L528.923 5.79883H583.817L636.908 86.1816L691.339 5.79883H745.357L665.67 118.407L751.542 244.253H751.568Z" fill="black"/>
<path d="M979.935 5.79862V5.84993L974.188 35.4322C951.173 11.8536 922.695 0.0771484 887 0.0771484C851.306 0.0771484 821.539 11.9306 797.803 35.6375C774.041 59.3444 762.16 89.055 762.16 124.821C762.16 160.586 774.041 190.399 797.803 214.235C821.565 238.07 852.466 250 887 250C921.535 250 950.297 238.352 973.311 215.107L978.182 244.253H1018V5.79862H979.935ZM966.456 151.478C966.456 160.227 959.343 167.308 950.555 167.308H931.638C930.323 167.308 929.292 168.36 929.292 169.643V188.475C929.292 197.224 922.179 204.305 913.391 204.305H861.873C851.615 204.305 843.291 197.224 843.291 188.475V169.643C843.291 168.36 842.234 167.308 840.946 167.308H822.029C813.241 167.308 806.127 160.227 806.127 151.478V130.311H827.389C836.152 130.311 843.291 137.392 843.291 146.141V167.308H929.292V146.141C929.292 137.392 936.406 130.311 945.194 130.311H966.456V151.478ZM966.456 118.689H945.194C936.406 118.689 929.292 111.607 929.292 102.858V81.6915H843.265V102.858C843.265 111.607 836.152 118.689 827.389 118.689H806.102V97.5217C806.102 88.7728 813.215 81.6915 822.003 81.6915H840.946C842.234 81.6915 843.265 80.6395 843.265 79.3567V60.4989C843.265 51.7756 850.378 44.6943 859.166 44.6943H910.685C920.942 44.6943 929.267 51.7756 929.267 60.4989V79.3567C929.267 80.6395 930.323 81.6915 931.612 81.6915H950.555C959.317 81.6915 966.456 88.7728 966.456 97.5217V118.689Z" fill="black"/>
</g>
<defs>
<clipPath id="clip0_2466_113">
<rect width="1018" height="250" fill="white"/>
</clipPath>
</defs>
</svg>
